<?xml version="1.0" encoding="utf-8"?>
<!-- Generator: Adobe Illustrator 24.0.1, SVG Export Plug-In . SVG Version: 6.00 Build 0)  -->
<svg version="1.1" id="Layer_1" xmlns="http://www.w3.org/2000/svg" xmlns:xlink="http://www.w3.org/1999/xlink" x="0px" y="0px"
	 viewBox="0 0 139.3 17.6" style="enable-background:new 0 0 139.3 17.6;" xml:space="preserve">
<style type="text/css">
	.st0{fill:#1D1D1B;}
	.st1{fill:url(#SVGID_1_);}
	.st2{fill:url(#SVGID_2_);}
	.st3{fill:url(#SVGID_3_);}
	.st4{fill:#F6A500;}
</style>
<g>
	<g>
		<path class="st0" d="M26.1,5.3h7.2v11.6h-7.2V5.3z M31.8,15.4V6.6h-4.3v8.8L31.8,15.4L31.8,15.4z M35.8,4.8h1.5v12.8h-1.5V4.8z"/>
		<path class="st0" d="M42.5,15.5c1.5,0,2.8-0.2,3.7-0.6v1.4c-0.8,0.4-2.1,0.6-3.7,0.6h-2.3v-6.5h3.8V6.6h-3.8V5.3h5.2v6.3h-3.8v3.9
			H42.5z M52,4.8v12.8h-1.4v-6.3h-2.1v6h-1.4V4.9h1.4v5.1h2.1V4.8H52z"/>
		<path class="st0" d="M54.3,8.6c0-2.1,1.6-3.7,4.1-3.7s4,1.6,4,3.7s-1.5,3.7-4,3.7C55.8,12.4,54.3,10.8,54.3,8.6z M55.4,13.2h1.5
			v2.8h9.5v1.4h-11V13.2z M60.9,8.6c0-1.5-1-2.5-2.6-2.5c-1.5,0-2.6,1-2.6,2.5s1,2.5,2.6,2.5C59.8,11.1,60.9,10.2,60.9,8.6z
			 M64.6,4.8h1.5v9.5h-1.5V4.8z"/>
		<path class="st0" d="M72.4,10.5l3.1,5.5l-1.2,0.7L72,12.5c-0.6,2.6-1.8,4-3.4,4.3v-1.5c1.7-0.5,2.5-3.9,2.6-8.8h-2.4V5.3h6v1.3
			h-2.2C72.6,8,72.5,9.3,72.4,10.5z M80.8,4.8v12.8h-1.4v-6.2h-2.1v6h-1.4V4.9h1.4v5.1h2.1V4.8H80.8z"/>
		<path class="st0" d="M83.6,11.6V9.5c3,0,5-0.9,5-2.3V7h-5V4.9h7.5v1.7C91.2,10.2,88,11.6,83.6,11.6z M95.9,14.9
			c0,2.1-2.6,2.9-5.8,2.9c-3.3,0-5.8-0.7-5.8-2.9S86.8,12,90,12C93.3,12,95.9,12.7,95.9,14.9z M93.1,14.9c0-0.6-1.4-0.8-3.1-0.8
			s-3.1,0.2-3.1,0.8c0,0.6,1.4,0.8,3.1,0.8S93.1,15.5,93.1,14.9z M93.2,10.9h-2V8.8h2V8h-1.5V5.8h1.5v-1h2.5v7h-2.5V10.9z"/>
		<path class="st0" d="M102.1,9.6c-1,0.9-2.5,1.6-4.2,1.7v-2c1.5-0.1,2.5-0.9,2.9-1.8H98V5.6h2.8v-1h2.6v1.1h2.8v1.9h-2.9
			c0,0.1-0.1,0.3-0.2,0.5l3.3,1.4l-0.9,1.8L102.1,9.6z M100.9,15.9h8.9v1.7H98.5v-3.7h8.8v-0.5h-8.8v-1.7h11.3v3.7h-8.8L100.9,15.9
			L100.9,15.9z M111.2,6.7V9h-1.5v2.3h-2.5V4.8h2.5v1.9L111.2,6.7L111.2,6.7z"/>
		<path class="st0" d="M120.8,7.6H112V5.6h3.1V4.6h2.6v1.1h3.1L120.8,7.6L120.8,7.6z M112.5,10.4c0-1.6,1.8-2.5,3.9-2.5
			c2.1,0,3.9,0.9,3.9,2.5c0,1.7-1.8,2.5-3.9,2.5C114.3,12.9,112.5,12.1,112.5,10.4z M112.8,13.4h11.3v4.4h-2.6v-2.3h-8.8L112.8,13.4
			L112.8,13.4z M114.9,10.4c0,0.4,0.6,0.7,1.5,0.7s1.5-0.3,1.5-0.7s-0.6-0.7-1.5-0.7S114.9,10,114.9,10.4z M125.6,9.9h-1.5v3h-2.5
			V4.8h2.5v2.7h1.5V9.9z"/>
		<path class="st0" d="M139.2,15.5v2.1h-11.6v-4.1h2v-1.3h-3.1v-1.9h5.9c1.2,0,2.5-0.1,3.3-0.5v1.9c-0.8,0.3-2.1,0.5-3.4,0.5h-0.3
			v1.9h-2v1.3H139.2z M127.2,7.3c0-1.7,1.6-2.6,3.9-2.6s3.9,0.9,3.9,2.6s-1.6,2.6-3.9,2.6C128.8,9.9,127.2,9,127.2,7.3z M129.6,7.3
			c0,0.5,0.6,0.7,1.5,0.7s1.5-0.2,1.5-0.7s-0.6-0.8-1.5-0.8S129.6,6.8,129.6,7.3z M136.5,12.6V4.8h2.5v9.9h-2.5v-0.4h-3.3v-1.8
			H136.5z"/>
	</g>
	<g>
		
			<linearGradient id="SVGID_1_" gradientUnits="userSpaceOnUse" x1="4.7815" y1="1.2839" x2="4.7815" y2="13.5188" gradientTransform="matrix(1 0 0 -1 0 18.2826)">
			<stop  offset="0.3298" style="stop-color:#1B3F91"/>
			<stop  offset="1" style="stop-color:#0080C6"/>
		</linearGradient>
		<path class="st1" d="M7.1,15.4V7.8c0,0,0-3.8-3.2-3.8c0,0-2.2-0.1-2.9,1.4c0,0,1.8-0.9,1.8,0.9v8.2c0,0-0.1,3.1,3.2,3.1h2.6
			C8.6,17.7,7.1,17.4,7.1,15.4z"/>
		
			<linearGradient id="SVGID_2_" gradientUnits="userSpaceOnUse" x1="9.9765" y1="1.2839" x2="9.9765" y2="13.5188" gradientTransform="matrix(1 0 0 -1 0 18.2826)">
			<stop  offset="0.3298" style="stop-color:#1B3F91"/>
			<stop  offset="1" style="stop-color:#0080C6"/>
		</linearGradient>
		<path class="st2" d="M9.8,4c0,0-2.2-0.1-2.9,1.4c0,0,1.8-0.9,1.8,0.9v3.4c0,0.4-0.3,1.1-1.2,1.1c0,0,1.1,0.2,1.2,1.9v3.2h0
			c0.1,1,1,1.8,2.2,1.8s2.1-0.8,2.2-1.8h0V7.8c0,0,0-0.5-0.1-1.1C12.7,5.6,11.9,4,9.8,4z"/>
		
			<linearGradient id="SVGID_3_" gradientUnits="userSpaceOnUse" x1="15.8617" y1="1.2839" x2="15.8617" y2="13.5188" gradientTransform="matrix(1 0 0 -1 0 18.2826)">
			<stop  offset="0.3298" style="stop-color:#1B3F91"/>
			<stop  offset="1" style="stop-color:#0080C6"/>
		</linearGradient>
		<path class="st3" d="M18.9,10.6V7.8c0,0,0-3.8-3.2-3.8c0,0-2.2-0.1-2.9,1.4c0,0,1.8-0.9,1.8,0.9v4l0,0v5.1c0,2-1.5,2.3-1.5,2.3
			h2.6c3.3,0,3.2-3.1,3.2-3.1V10.6L18.9,10.6z"/>
	</g>
	<circle class="st4" cx="15.7" cy="1.2" r="1.1"/>
	<circle class="st4" cx="11.9" cy="1.2" r="1.1"/>
</g>
</svg>
