<?xml version="1.0" encoding="utf-8"?>
<!-- Generator: Adobe Illustrator 24.0.1, SVG Export Plug-In . SVG Version: 6.00 Build 0)  -->
<svg version="1.1" id="Layer_1" xmlns="http://www.w3.org/2000/svg" xmlns:xlink="http://www.w3.org/1999/xlink" x="0px" y="0px"
	 viewBox="0 0 139.2 24.7" style="enable-background:new 0 0 139.2 24.7;" xml:space="preserve">
<style type="text/css">
	.st0{fill:#1D1D1B;}
	.st1{fill:#575756;}
	.st2{fill:url(#SVGID_1_);}
	.st3{fill:url(#SVGID_2_);}
	.st4{fill:url(#SVGID_3_);}
	.st5{fill:#F6A500;}
</style>
<g>
	<g>
		<path class="st0" d="M25.8,12.3h7.3v11.6h-7.3V12.3z M31.6,22.5v-8.8h-4.3v8.8H31.6z M35.5,11.8H37v12.8h-1.5V11.8z"/>
		<path class="st0" d="M42.3,22.6c1.5,0,2.8-0.2,3.7-0.6v1.4c-0.8,0.4-2.2,0.6-3.7,0.6h-2.4v-6.6h3.8v-3.7h-3.8v-1.3h5.2v6.4h-3.8
			v3.9H42.3z M51.9,11.8v12.8h-1.4v-6.3h-2.1v6.1h-1.4V11.9h1.4V17h2.1v-5.2H51.9z"/>
		<path class="st0" d="M54.1,15.7c0-2.2,1.6-3.7,4.1-3.7s4.1,1.6,4.1,3.7c0,2.2-1.5,3.7-4.1,3.7S54.1,17.8,54.1,15.7z M55.2,20.3
			h1.5v2.8h9.6v1.4H55.2V20.3z M60.8,15.7c0-1.5-1.1-2.5-2.6-2.5c-1.5,0-2.6,1-2.6,2.5s1.1,2.5,2.6,2.5
			C59.7,18.2,60.8,17.2,60.8,15.7z M64.5,11.8H66v9.5h-1.5V11.8z"/>
		<path class="st0" d="M72.3,17.5l3.1,5.5l-1.2,0.7L72,19.6c-0.6,2.6-1.8,4-3.4,4.3v-1.5c1.7-0.5,2.5-3.9,2.6-8.8h-2.4v-1.4h6v1.4
			h-2.2C72.6,15.1,72.5,16.4,72.3,17.5z M80.8,11.8v12.8h-1.4v-6.3h-2.1v6h-1.4V11.9h1.4V17h2.1v-5.2H80.8z"/>
		<path class="st0" d="M83.6,18.7v-2.2c3,0,5-0.9,5-2.3v-0.2h-5V12h7.6v1.7C91.2,17.3,88,18.7,83.6,18.7z M95.9,22
			c0,2.1-2.6,2.9-5.9,2.9c-3.3,0-5.9-0.7-5.9-2.9c0-2.1,2.6-2.9,5.9-2.9C93.3,19.1,95.9,19.8,95.9,22z M93.2,22
			c0-0.6-1.4-0.8-3.1-0.8s-3.1,0.2-3.1,0.8c0,0.6,1.4,0.8,3.1,0.8S93.2,22.6,93.2,22z M93.3,18h-2v-2.2h2V15h-1.5v-2.2h1.5v-1h2.5
			v7.1h-2.5V18z"/>
		<path class="st0" d="M102.1,16.7c-1,0.9-2.5,1.6-4.2,1.7v-2c1.5-0.1,2.5-0.9,2.9-1.8h-2.8v-1.9h2.8v-1.1h2.6v1.1h2.8v1.9h-2.9
			c0,0.2-0.1,0.3-0.2,0.5l3.3,1.4l-0.9,1.8L102.1,16.7z M101,23h9v1.7H98.5v-3.8h8.8v-0.5h-8.9v-1.7h11.4v3.7H101V23z M111.3,13.7
			V16h-1.5v2.3h-2.5v-6.5h2.5v1.9H111.3z"/>
		<path class="st0" d="M120.9,14.6h-8.8v-1.9h3.1v-1.1h2.6v1.1h3.1V14.6z M112.6,17.5c0-1.7,1.8-2.5,3.9-2.5c2.1,0,3.9,0.9,3.9,2.5
			c0,1.7-1.8,2.5-3.9,2.5C114.4,20,112.6,19.1,112.6,17.5z M112.9,20.4h11.4v4.4h-2.6v-2.3h-8.8V20.4z M115,17.5
			c0,0.4,0.6,0.7,1.5,0.7s1.5-0.3,1.5-0.7c0-0.4-0.6-0.7-1.5-0.7S115,17,115,17.5z M125.8,17h-1.5v3h-2.5v-8.2h2.5v2.7h1.5V17z"/>
		<path class="st0" d="M139.4,22.6v2.1h-11.7v-4.1h2v-1.3h-3.1v-2h5.9c1.2,0,2.5-0.1,3.3-0.5v2c-0.8,0.3-2.1,0.5-3.4,0.5h-0.3v1.9
			h-2v1.3H139.4z M127.3,14.3c0-1.7,1.6-2.6,3.9-2.6c2.3,0,3.9,0.9,3.9,2.6c0,1.7-1.6,2.6-3.9,2.6C129,16.9,127.3,16.1,127.3,14.3z
			 M129.8,14.3c0,0.5,0.6,0.8,1.5,0.8c0.9,0,1.5-0.2,1.5-0.8c0-0.5-0.6-0.8-1.5-0.8C130.4,13.6,129.8,13.8,129.8,14.3z M136.7,19.7
			v-7.9h2.5v10h-2.5v-0.4h-3.3v-1.8H136.7z"/>
	</g>
	<g>
		<path class="st1" d="M29.8,3.5v0.9c1.4,0,2.7,0.3,2.7,1.1c0,0.9-1.4,1.2-2.9,1.2s-2.9-0.3-2.9-1.2c0-0.9,1.3-1.1,2.7-1.1V3.5h-3.2
			V3.2H33v0.3H29.8z M26.7,2.5V2.2c1.3,0,2.8-0.6,2.9-1.8h-2.8V0.2h5.6v0.3H30c0,0.3-0.1,0.5-0.2,0.7l2.9,1.1l-0.1,0.3l-3-1.1
			C28.9,2.2,27.7,2.5,26.7,2.5z M29.6,4.7c-1.2,0-2.5,0.2-2.5,0.8c0,0.6,1.3,0.8,2.5,0.8s2.5-0.2,2.5-0.8
			C32.2,4.9,30.8,4.7,29.6,4.7z"/>
		<path class="st1" d="M34,3.4V3.1c1.5-0.3,2.3-1.6,2.3-3l0.3,0c0,0.5-0.1,1-0.3,1.4l2.3,1.6l-0.2,0.3l-2.3-1.5
			C35.8,2.7,35,3.2,34,3.4z M34.6,4.2H40v2.4h-5.5V4.2z M34.9,6.3h4.8V4.5h-4.8V6.3z M40,0v3.7h-0.3V0H40z"/>
		<path class="st1" d="M44,6.3h-2.5V6H44c1.2,0,2.1-0.1,2.6-0.4v0.3C46.2,6.1,45.2,6.3,44,6.3z M45.9,2.3c0,1.2-0.9,2.1-2,2.1
			s-2-0.9-2-2.1c0-1.2,0.9-2.1,2-2.1S45.9,1.1,45.9,2.3z M42.1,2.3c0,1,0.7,1.8,1.7,1.8s1.7-0.8,1.7-1.8c0-1-0.7-1.8-1.7-1.8
			S42.1,1.3,42.1,2.3z M47.7,6.8h-0.3V0h0.3V6.8z"/>
		<path class="st1" d="M55.7,3.3c0,2.1-0.8,3.1-2,3.1c-1.1,0-2-1-2-3.1c0-2.1,0.8-3.1,2-3.1C54.8,0.2,55.7,1.2,55.7,3.3z M52.1,3.3
			c0,1.9,0.7,2.8,1.6,2.8c0.9,0,1.6-0.9,1.6-2.8c0-1.9-0.7-2.8-1.6-2.8C52.8,0.5,52.1,1.4,52.1,3.3z M57.5,6.8h-0.3V0h0.3V6.8z"/>
		<path class="st1" d="M65.6,3.3v0.3H59V3.3h3.2v-1h-2.6V0.2h5.6v0.3h-5.3V2h5.3v0.3h-2.7v1H65.6z M65.2,5.6c0,0.9-1.4,1.2-2.9,1.2
			s-2.9-0.3-2.9-1.2s1.4-1.2,2.9-1.2S65.2,4.7,65.2,5.6z M64.8,5.6c0-0.6-1.4-0.8-2.5-0.8s-2.5,0.2-2.5,0.8c0,0.6,1.4,0.8,2.5,0.8
			S64.8,6.2,64.8,5.6z"/>
		<path class="st1" d="M69.2,3.4v0.3h-2.6V3.4H69.2z"/>
	</g>
	<g>
		<linearGradient id="SVGID_1_" gradientUnits="userSpaceOnUse" x1="4.4098" y1="24.0952" x2="4.4098" y2="11.8045">
			<stop  offset="0.3298" style="stop-color:#1B3F91"/>
			<stop  offset="1" style="stop-color:#0080C6"/>
		</linearGradient>
		<path class="st2" d="M6.7,22.4v-7.6c0,0,0-3.8-3.2-3.8c0,0-2.2-0.1-3,1.4c0,0,1.8-0.9,1.8,0.9v8.3c0,0-0.1,3.1,3.2,3.1h2.6
			C8.3,24.8,6.7,24.5,6.7,22.4z"/>
		<linearGradient id="SVGID_2_" gradientUnits="userSpaceOnUse" x1="9.6166" y1="24.0952" x2="9.6166" y2="11.8045">
			<stop  offset="0.3298" style="stop-color:#1B3F91"/>
			<stop  offset="1" style="stop-color:#0080C6"/>
		</linearGradient>
		<path class="st3" d="M9.5,11c0,0-2.2-0.1-3,1.4c0,0,1.8-0.9,1.8,0.9v3.4c0,0.4-0.3,1.1-1.2,1.1c0,0,1.1,0.2,1.2,1.9v3.2h0
			c0.1,1,1,1.8,2.2,1.8s2.1-0.8,2.2-1.8h0v-8.1c0,0,0-0.5-0.1-1.1C12.3,12.6,11.6,11,9.5,11z"/>
		<linearGradient id="SVGID_3_" gradientUnits="userSpaceOnUse" x1="15.5346" y1="24.0952" x2="15.5346" y2="11.8045">
			<stop  offset="0.3298" style="stop-color:#1B3F91"/>
			<stop  offset="1" style="stop-color:#0080C6"/>
		</linearGradient>
		<path class="st4" d="M18.6,17.7v-2.8c0,0,0-3.8-3.2-3.8c0,0-2.2-0.1-3,1.4c0,0,1.8-0.9,1.8,0.9v4h0v5.1c0,2.1-1.5,2.3-1.5,2.3h2.6
			c3.3,0,3.2-3.1,3.2-3.1L18.6,17.7L18.6,17.7z"/>
	</g>
	<circle class="st5" cx="15.4" cy="8.3" r="1.1"/>
	<circle class="st5" cx="11.6" cy="8.3" r="1.1"/>
</g>
</svg>
