<?xml version="1.0" encoding="utf-8"?>
<!-- Generator: Adobe Illustrator 24.0.1, SVG Export Plug-In . SVG Version: 6.00 Build 0)  -->
<svg version="1.1" id="Layer_1" xmlns="http://www.w3.org/2000/svg" xmlns:xlink="http://www.w3.org/1999/xlink" x="0px" y="0px"
	 viewBox="0 0 46 46" style="enable-background:new 0 0 46 46;" xml:space="preserve">
<style type="text/css">
	.st0{opacity:0.7;enable-background:new    ;}
	.st1{fill:none;}
	.st2{fill:#FFFFFF;}
</style>
<g transform="translate(-1604 -520)">
	<path class="st0" d="M1627,520L1627,520c12.7,0,23,10.3,23,23l0,0c0,12.7-10.3,23-23,23l0,0c-12.7,0-23-10.3-23-23l0,0
		C1604,530.3,1614.3,520,1627,520z"/>
	<path class="st1" d="M1612,528h28v28h-28V528z"/>
	<path class="st2" d="M1634.5,540.3c1,0.6,1.3,1.8,0.7,2.7c-0.2,0.3-0.4,0.5-0.7,0.7l-11.9,7c-1,0.6-2.2,0.2-2.7-0.7
		c-0.2-0.3-0.3-0.7-0.3-1V535c0-1.1,0.9-2,2-2c0.4,0,0.7,0.1,1,0.3L1634.5,540.3z"/>
</g>
</svg>
