<?xml version="1.0" encoding="utf-8"?>
<!-- Generator: Adobe Illustrator 24.0.1, SVG Export Plug-In . SVG Version: 6.00 Build 0)  -->
<svg version="1.1" id="Layer_1" xmlns="http://www.w3.org/2000/svg" xmlns:xlink="http://www.w3.org/1999/xlink" x="0px" y="0px"
	 viewBox="0 0 46 46" style="enable-background:new 0 0 46 46;" xml:space="preserve">
<style type="text/css">
	.st0{opacity:0.7;enable-background:new    ;}
	.st1{fill:none;}
	.st2{fill:#FFFFFF;}
</style>
<g id="btn_정지" transform="translate(-632 -562)">
	<path id="사각형_35" class="st0" d="M655,562L655,562c12.7,0,23,10.3,23,23l0,0c0,12.7-10.3,23-23,23l0,0c-12.7,0-23-10.3-23-23
		l0,0C632,572.3,642.3,562,655,562z"/>
	<g id="btn_PC_playStop" transform="translate(643 573)">
		<path id="사각형_855" class="st1" d="M0,0h24v24H0V0z"/>
		<path id="사각형_33" class="st2" d="M7.5,3L7.5,3C8.3,3,9,3.7,9,4.5v15C9,20.3,8.3,21,7.5,21l0,0C6.7,21,6,20.3,6,19.5v-15
			C6,3.7,6.7,3,7.5,3z"/>
		<path id="사각형_34" class="st2" d="M16.5,3L16.5,3C17.3,3,18,3.7,18,4.5v15c0,0.8-0.7,1.5-1.5,1.5l0,0c-0.8,0-1.5-0.7-1.5-1.5
			v-15C15,3.7,15.7,3,16.5,3z"/>
	</g>
</g>
</svg>
