<?xml version="1.0" encoding="utf-8"?>
<!-- Generator: Adobe Illustrator 24.0.0, SVG Export Plug-In . SVG Version: 6.00 Build 0)  -->
<svg version="1.1" id="Layer_1" xmlns="http://www.w3.org/2000/svg" xmlns:xlink="http://www.w3.org/1999/xlink" x="0px" y="0px"
	 viewBox="0 0 72.12 56.5" style="enable-background:new 0 0 72.12 56.5;" xml:space="preserve">
<style type="text/css">
	.st0{fill:#333333;}
</style>
<g>
	<path class="st0" d="M36.06,56.5c-0.95,0-1.72-0.75-1.75-1.7c-0.22-8.5-0.3-24.86-0.33-30.21c0-0.97,0.78-1.75,1.74-1.76
		c0,0,0.01,0,0.01,0c0.96,0,1.75,0.78,1.75,1.74c0.02,4.16,0.07,16.17,0.2,23.94c2.89-1.72,6.64-1.41,7.49-1.31h23.45V3.5H43.51
		c-4.62,0-5.57,3.77-5.7,4.43c-0.04,1.51-0.08,2.65-0.12,3.72c-0.08,2.31-0.15,0.3-0.19,5.12c-0.01,0.96-0.79,1.74-1.75,1.74
		c0,0-0.01,0-0.01,0c-0.97-0.01-1.74-0.8-1.74-1.76c0.04-4.87,0.11-2.88,0.19-5.22c0.04-1.09,0.08-2.25,0.12-3.82
		c0-0.07,0.01-0.15,0.02-0.22C34.73,4.89,37.17,0,43.51,0h26.86c0.97,0,1.75,0.78,1.75,1.75v47.21c0,0.97-0.78,1.75-1.75,1.75H45.06
		c-0.08,0-0.16,0-0.23-0.02c-1.09-0.14-4.29-0.19-5.92,1.24c-0.74,0.65-1.1,1.57-1.1,2.82c0,0.96-0.77,1.74-1.73,1.75
		C36.08,56.5,36.07,56.5,36.06,56.5z"/>
	<path class="st0" d="M36.06,56.5c-0.97,0-1.75-0.78-1.75-1.75c0-1.25-0.36-2.17-1.1-2.82c-1.64-1.44-4.9-1.37-5.91-1.24
		c-0.08,0.01-0.15,0.02-0.23,0.02H1.75C0.78,50.71,0,49.92,0,48.96V1.75C0,0.78,0.78,0,1.75,0h26.86c6.34,0,8.78,4.89,9.18,7.48
		c0.15,0.96-0.51,1.85-1.46,2c-0.96,0.14-1.84-0.5-2-1.45c-0.08-0.47-0.92-4.53-5.72-4.53H3.5v43.71h23.45
		c0.96-0.11,5.6-0.5,8.56,2.09c1.5,1.32,2.3,3.2,2.3,5.46C37.81,55.72,37.03,56.5,36.06,56.5z"/>
	<path class="st0" d="M59.87,15.08H46.31c-0.82,0-1.48-0.78-1.48-1.75s0.66-1.75,1.48-1.75h13.56c0.82,0,1.48,0.78,1.48,1.75
		S60.69,15.08,59.87,15.08z"/>
	<path class="st0" d="M53.08,24.08h-6.77c-0.82,0-1.48-0.78-1.48-1.75s0.66-1.75,1.48-1.75h6.77c0.82,0,1.48,0.78,1.48,1.75
		S53.9,24.08,53.08,24.08z"/>
	<path class="st0" d="M59.87,32.08H46.31c-0.82,0-1.48-0.78-1.48-1.75s0.66-1.75,1.48-1.75h13.56c0.82,0,1.48,0.78,1.48,1.75
		S60.69,32.08,59.87,32.08z"/>
	<path class="st0" d="M60.27,24.08h-1.69c-0.82,0-1.48-0.78-1.48-1.75s0.66-1.75,1.48-1.75h1.69c0.82,0,1.48,0.78,1.48,1.75
		S61.09,24.08,60.27,24.08z"/>
</g>
</svg>
