<?xml version="1.0" encoding="utf-8"?>
<!-- Generator: Adobe Illustrator 24.0.0, SVG Export Plug-In . SVG Version: 6.00 Build 0)  -->
<svg version="1.1" id="Layer_1" xmlns="http://www.w3.org/2000/svg" xmlns:xlink="http://www.w3.org/1999/xlink" x="0px" y="0px"
	 viewBox="0 0 61.74 61.75" style="enable-background:new 0 0 61.74 61.75;" xml:space="preserve">
<style type="text/css">
	.st0{fill:#333333;}
</style>
<g>
	<g>
		<g>
			<g>
				<g>
					<path class="st0" d="M59.82,41.16c-1.06,0-1.92-0.86-1.92-1.92V5.92c0-1.15-0.93-2.08-2.08-2.08H5.92
						c-1.15,0-2.08,0.93-2.08,2.08v33.32c0,1.06-0.86,1.92-1.92,1.92S0,40.3,0,39.24V5.92C0,2.65,2.65,0,5.92,0h49.91
						c3.26,0,5.92,2.65,5.92,5.92v33.32C61.74,40.3,60.88,41.16,59.82,41.16z"/>
					<path class="st0" d="M55.83,51.85H5.92C2.65,51.85,0,49.19,0,45.93v-6.69c0-1.06,0.86-1.92,1.92-1.92s1.92,0.86,1.92,1.92v6.69
						c0,1.15,0.93,2.08,2.08,2.08h49.91c1.15,0,2.08-0.93,2.08-2.08v-6.69c0-1.06,0.86-1.92,1.92-1.92s1.92,0.86,1.92,1.92v6.69
						C61.74,49.19,59.09,51.85,55.83,51.85z"/>
				</g>
				<path class="st0" d="M39.95,61.75H21.79c-1.06,0-1.92-0.86-1.92-1.92v-9.72c0-1.06,0.86-1.92,1.92-1.92h18.17
					c1.06,0,1.92,0.86,1.92,1.92v9.72C41.87,60.89,41.01,61.75,39.95,61.75z M23.71,57.91h14.32v-5.88H23.71V57.91z"/>
				<path class="st0" d="M47.62,61.75H14.13c-1.06,0-1.92-0.86-1.92-1.92c0-1.06,0.86-1.92,1.92-1.92h33.49
					c1.06,0,1.92,0.86,1.92,1.92C49.54,60.89,48.68,61.75,47.62,61.75z"/>
			</g>
		</g>
		<path class="st0" d="M31.14,27.31c-0.49,0-0.98-0.19-1.36-0.56l-5.48-5.48c-0.75-0.75-0.75-1.97,0-2.72
			c0.75-0.75,1.97-0.75,2.72,0l4.13,4.13l7.53-7.53c0.75-0.75,1.97-0.75,2.72,0c0.75,0.75,0.75,1.97,0,2.72l-8.89,8.89
			C32.12,27.12,31.63,27.31,31.14,27.31z"/>
	</g>
	<path class="st0" d="M34.68,42.25H3.86c-1.06,0-1.92-0.86-1.92-1.92c0-1.06,0.86-1.92,1.92-1.92h30.82c1.06,0,1.92,0.86,1.92,1.92
		C36.6,41.39,35.74,42.25,34.68,42.25z"/>
	<path class="st0" d="M58.73,42.25H42.27c-1.06,0-1.92-0.86-1.92-1.92c0-1.06,0.86-1.92,1.92-1.92h16.46c1.06,0,1.92,0.86,1.92,1.92
		C60.65,41.39,59.79,42.25,58.73,42.25z"/>
</g>
</svg>
