<?xml version="1.0" encoding="utf-8"?>
<!-- Generator: Adobe Illustrator 24.0.0, SVG Export Plug-In . SVG Version: 6.00 Build 0)  -->
<svg version="1.1" id="Layer_1" xmlns="http://www.w3.org/2000/svg" xmlns:xlink="http://www.w3.org/1999/xlink" x="0px" y="0px"
	 viewBox="0 0 69.2 63.7" style="enable-background:new 0 0 69.2 63.7;" xml:space="preserve">
<style type="text/css">
	.st0{fill:#333333;}
</style>
<g>
	<g>
		<path class="st0" d="M2,35.94c-0.52,0-1.04-0.2-1.43-0.6c-0.77-0.79-0.76-2.06,0.03-2.83L33.2,0.57c0.78-0.76,2.02-0.76,2.8,0
			l32.6,31.94c0.79,0.77,0.8,2.04,0.03,2.83c-0.77,0.79-2.04,0.8-2.83,0.03L34.6,4.8L3.4,35.37C3.01,35.75,2.5,35.94,2,35.94z"/>
		<path class="st0" d="M43.53,59.7h12.49V32.94c0-1.1,0.9-2,2-2s2,0.9,2,2V61.7c0,1.1-0.9,2-2,2H41.53c-1.1,0-2-0.9-2-2"/>
		<path class="st0" d="M49.33,63.7H11.18c-1.1,0-2-0.9-2-2V32.94c0-1.1,0.9-2,2-2s2,0.9,2,2V59.7h32.15"/>
	</g>
	<path d="M34.33,61.7c-1.1,0-2-0.9-2-2V44.58c0-1.1,0.9-2,2-2s2,0.9,2,2V59.7C36.33,60.81,35.43,61.7,34.33,61.7z"/>
</g>
</svg>
