<?xml version="1.0" encoding="utf-8"?>
<!-- Generator: Adobe Illustrator 24.0.0, SVG Export Plug-In . SVG Version: 6.00 Build 0)  -->
<svg version="1.1" id="Layer_1" xmlns="http://www.w3.org/2000/svg" xmlns:xlink="http://www.w3.org/1999/xlink" x="0px" y="0px"
	 viewBox="0 0 60.49 64.1" style="enable-background:new 0 0 60.49 64.1;" xml:space="preserve">
<style type="text/css">
	.st0{fill:#333333;}
</style>
<g>
	<path class="st0" d="M60.19,41.18c-0.28-0.38-0.73-0.61-1.21-0.61h-4.52v-3.83c0-3.26-1.95-6.2-5.1-7.69
		c-1.65-0.78-3.5-1.48-5.49-2.07c-0.81-0.24-1.63-0.47-2.44-0.66c-2.16-0.59-3.73-2.11-4.11-3.98c-0.01-0.04-0.01-0.1-0.02-0.16
		c2.64-2.43,4.35-6.21,4.35-10.46C41.65,4.82,37.01,0,30.35,0s-11.3,4.82-11.3,11.72c0,4.24,1.7,8.01,4.34,10.45
		c-0.01,0.12-0.03,0.23-0.05,0.31c-0.39,1.83-1.99,3.34-4.07,3.84c-0.84,0.2-1.64,0.42-2.46,0.66c-1.99,0.59-3.84,1.29-5.48,2.07
		c-3.14,1.49-5.09,4.43-5.09,7.68v3.84H1.72c-0.48,0-0.92,0.22-1.21,0.61c-0.28,0.38-0.37,0.87-0.24,1.33L6.3,62.89
		c0.19,0.64,0.78,1.08,1.44,1.08h37.17c0.83,0,1.51-0.68,1.51-1.51c0-0.83-0.68-1.51-1.51-1.51H8.88L3.74,43.58h53.23l-5.46,18.45
		c-0.24,0.8,0.22,1.64,1.02,1.87c0.14,0.04,0.29,0.06,0.43,0.06c0.65,0,1.25-0.42,1.44-1.08l3.51-11.88L58.81,48l1.62-5.49
		C60.56,42.05,60.47,41.56,60.19,41.18z M27.49,21.36c-3.16-1.45-5.43-5.22-5.43-9.64c0-5.29,3.25-8.71,8.29-8.71
		c5.04,0,8.29,3.42,8.29,8.71c0,4.75-1.62,8.1-5.15,9.27l1,3c0,0,0,0,0.22-0.01c0.61,1.66,1.77,3.1,3.38,4.1
		c-0.62,2.12-3.61,4.21-7.73,4.21c-4.11,0-7.1-2.06-7.72-4.16c1.59-0.99,2.78-2.45,3.37-4.14 M51.45,40.57H9.26v-3.84
		c0-2.07,1.29-3.97,3.36-4.96c1.51-0.71,3.21-1.35,5.05-1.9c0.72-0.21,1.44-0.41,2.18-0.59c1.2,3.45,5.44,6.02,10.5,6.02
		c5.06,0,9.29-2.57,10.5-6.02c0.73,0.18,1.45,0.37,2.16,0.59c1.85,0.55,3.55,1.19,5.06,1.9c2.08,0.99,3.37,2.89,3.37,4.97V40.57z"/>
	<path class="st0" d="M52,63.02c0.19,0.64,0.78,1.08,1.44,1.08h5.17c0.83,0,1.51-0.68,1.51-1.51c0-0.83-0.68-1.51-1.51-1.51h-4.04"
		/>
	<path class="st0" d="M14.12,62.17c-0.19-0.64-0.78-1.08-1.44-1.08H1.51C0.68,61.09,0,61.77,0,62.6c0,0.83,0.68,1.51,1.51,1.51
		h10.04"/>
	<path class="st0" d="M31.49,55c0.83,0,1.5-0.67,1.5-1.5c0-0.83-0.67-1.5-1.5-1.5h-3c-0.83,0-1.5,0.67-1.5,1.5
		c0,0.83,0.67,1.5,1.5,1.5H31.49z"/>
</g>
</svg>
