<?xml version="1.0" encoding="utf-8"?>
<!-- Generator: Adobe Illustrator 24.0.0, SVG Export Plug-In . SVG Version: 6.00 Build 0)  -->
<svg version="1.1" id="Layer_1" xmlns="http://www.w3.org/2000/svg" xmlns:xlink="http://www.w3.org/1999/xlink" x="0px" y="0px"
	 viewBox="0 0 54.5 43.5" style="enable-background:new 0 0 54.5 43.5;" xml:space="preserve">
<style type="text/css">
	.st0{fill:#333333;}
</style>
<g>
	<path class="st0" d="M52.75,3.5h-51C0.78,3.5,0,2.72,0,1.75S0.78,0,1.75,0h51c0.97,0,1.75,0.78,1.75,1.75S53.72,3.5,52.75,3.5z"/>
	<path class="st0" d="M52.75,23.5h-35c-0.97,0-1.75-0.78-1.75-1.75S16.78,20,17.75,20h35c0.97,0,1.75,0.78,1.75,1.75
		S53.72,23.5,52.75,23.5z"/>
	<path class="st0" d="M52.75,43.5h-51C0.78,43.5,0,42.72,0,41.75S0.78,40,1.75,40h51c0.97,0,1.75,0.78,1.75,1.75
		S53.72,43.5,52.75,43.5z"/>
</g>
</svg>
